<?xml version="1.0" encoding="UTF-8" standalone="no"?>
<!-- Created with Inkscape (http://www.inkscape.org/) -->

<svg
   xmlns:dc="http://purl.org/dc/elements/1.1/"
   xmlns:cc="http://creativecommons.org/ns#"
   xmlns:rdf="http://www.w3.org/1999/02/22-rdf-syntax-ns#"
   xmlns:svg="http://www.w3.org/2000/svg"
   xmlns="http://www.w3.org/2000/svg"
   xmlns:sodipodi="http://sodipodi.sourceforge.net/DTD/sodipodi-0.dtd"
   xmlns:inkscape="http://www.inkscape.org/namespaces/inkscape"
   width="33.582378mm"
   height="15.17757mm"
   viewBox="0 0 33.582378 15.17757"
   version="1.1"
   id="svg4549"
   inkscape:version="0.92.5 (2060ec1f9f, 2020-04-08)"
   sodipodi:docname="0_label_mask_blue.svg">
  <defs
     id="defs4543" />
  <sodipodi:namedview
     id="base"
     pagecolor="#ffffff"
     bordercolor="#666666"
     borderopacity="1.0"
     inkscape:pageopacity="0.0"
     inkscape:pageshadow="2"
     inkscape:zoom="4"
     inkscape:cx="-51.560866"
     inkscape:cy="54.887224"
     inkscape:document-units="mm"
     inkscape:current-layer="layer1"
     showgrid="false"
     fit-margin-top="0"
     fit-margin-left="0"
     fit-margin-right="0"
     fit-margin-bottom="0"
     inkscape:window-width="1858"
     inkscape:window-height="953"
     inkscape:window-x="1950"
     inkscape:window-y="95"
     inkscape:window-maximized="0" />
  <metadata
     id="metadata4546">
    <rdf:RDF>
      <cc:Work
         rdf:about="">
        <dc:format>image/svg+xml</dc:format>
        <dc:type
           rdf:resource="http://purl.org/dc/dcmitype/StillImage" />
        <dc:title />
      </cc:Work>
    </rdf:RDF>
  </metadata>
  <g
     inkscape:label="Layer 1"
     inkscape:groupmode="layer"
     id="layer1"
     transform="translate(-75.735873,-138.77379)">
    <path
       style="fill:none;stroke:none;stroke-width:0.26458332px;stroke-linecap:butt;stroke-linejoin:miter;stroke-opacity:1"
       d="m 72.999702,139.2649 4.934463,-13.98488 6.244085,-3.11035 1.449937,1.75395 2.549083,-1.98781 0.841899,-2.75956 4.069178,-1.35639 2.245064,1.89427 h 1.286235 l 2.408767,-1.37978 4.513517,2.6894 0.37417,2.78294 1.89428,0.11693 5.05139,5.40219 2.17491,7.34323 -1.87089,2.12813 0.18709,1.00561 -3.06358,1.54348 1.02899,11.22532 -31.243808,1.37978 -2.081362,-13.9615 z"
       id="path5112"
       inkscape:connector-curvature="0" />
    <path
       style="fill:#09fffb;stroke:none;stroke-width:0.26458332px;stroke-linecap:butt;stroke-linejoin:miter;stroke-opacity:1;fill-opacity:1"
       d="m 75.99312,139.98986 -0.257247,-1.21607 32.459887,1.07576 0.0935,1.49671 1.02899,11.22532 -31.243808,1.37978 z"
       id="path5114"
       inkscape:connector-curvature="0" />
    <path
       style="fill:#09fffb;stroke:none;stroke-width:0.26458332px;stroke-linecap:butt;stroke-linejoin:miter;stroke-opacity:1;fill-opacity:1"
       d="m 78.963153,149.71848 -1.824115,-10.33665 29.934182,1.30962 1.3564,7.7174 z"
       id="path5116"
       inkscape:connector-curvature="0" />
    <path
       style="fill:#09fffb;fill-opacity:1;stroke:none;stroke-width:0.25"
       d="m 12.214134,41.092871 c 0,-0.104972 -1.52351,-8.816765 -3.3855792,-19.359541 C 6.9664863,11.190554 5.4811974,2.5264247 5.5279128,2.4797093 5.6195139,2.3881081 112.345,7.0029486 116.10814,7.2612304 l 2.26902,0.1557322 2.53272,14.4073634 c 1.39299,7.92405 2.50944,14.430395 2.48099,14.458545 -0.0285,0.02815 -24.407986,1.12675 -54.176736,2.44133 -29.76875,1.314583 -54.771875,2.42826 -55.5625,2.474838 -0.790625,0.04658 -1.4375,-0.0012 -1.4375,-0.106168 z"
       id="path899"
       inkscape:connector-curvature="0"
       transform="matrix(0.26458333,0,0,0.26458333,75.735873,138.77379)" />
    <path
       style="fill:#09fffb;fill-opacity:1;stroke:none;stroke-width:0.25"
       d="m 12.214134,41.198641 c 0,-0.0567 -1.52508,-8.770972 -3.389068,-19.365052 C 6.9610788,11.239508 5.4785891,2.529033 5.5306445,2.4769776 5.6901063,2.3175158 118.17735,7.2505539 118.33979,7.4241324 c 0.04,0.042729 1.1553,6.2651886 2.47848,13.8276886 1.32317,7.5625 2.46505,14.042643 2.53751,14.40032 l 0.13175,0.650318 -3.0742,0.164392 c -1.69081,0.09042 -25.911696,1.170355 -53.824196,2.399863 -27.9125,1.22951 -51.565625,2.280367 -52.5625,2.335242 -0.996875,0.05487 -1.8125,0.05338 -1.8125,-0.0033 z"
       id="path901"
       inkscape:connector-curvature="0"
       transform="matrix(0.26458333,0,0,0.26458333,75.735873,138.77379)" />
  </g>
</svg>
